<?xml version="1.0" encoding="UTF-8"?>
<svg id="_Слой_1" data-name="Слой_1" xmlns="http://www.w3.org/2000/svg" version="1.1" viewBox="0 0 595.28 280">
  <!-- Generator: Adobe Illustrator 29.1.0, SVG Export Plug-In . SVG Version: 2.1.0 Build 142)  -->
  <defs>
    <style>
      .st0 {
        fill: #3e8dff;
      }

      .st1 {
        fill: #000c63;
      }

      .st2 {
        fill: #001fff;
      }
    </style>
  </defs>
  <g>
    <path d="M258.87,117.13h-37.31V41.88h36.26c5.72,0,10.47,1.74,14.29,5.21,3.79,3.47,5.69,7.83,5.69,13.06,0,4.07-1,7.8-3.02,11.19-1.99,3.36-4.75,5.95-8.25,7.74,3.79,1.79,6.8,4.38,9.02,7.8,2.22,3.39,3.33,7.26,3.33,11.56,0,5.24-1.91,9.65-5.75,13.26-3.84,3.61-8.6,5.44-14.26,5.44ZM256.74,45.41h-31.39v32.16h32.56c4.58,0,8.42-1.71,11.53-5.12,3.07-3.39,4.61-7.6,4.61-12.64,0-4.16-1.65-7.57-4.95-10.3-3.3-2.73-7.4-4.1-12.35-4.1ZM257.91,81.21h-32.56v32.36h32.47c4.92,0,9.05-1.42,12.35-4.3,3.3-2.85,4.95-6.38,4.95-10.53,0-5.01-1.65-9.19-4.9-12.52-3.27-3.33-7.37-5.01-12.32-5.01Z"/>
    <path d="M336.8,72.19c-.91,2.22-1.91,4.13-3.02,5.75-1.11,1.62-2.68,3.42-4.67,5.44-2.02,1.99-3.61,3.5-4.78,4.5-1.2,1.02-2.85,2.39-5.01,4.1-.51.37-.85.65-1.08.85l-27.18,20.86h47.08v3.44h-51.6v-4.95l30.11-22.8c1.94-1.57,3.24-2.65,3.96-3.27.74-.6,1.99-1.71,3.84-3.33,1.82-1.62,3.13-2.96,3.96-4.04.83-1.05,1.79-2.36,2.9-3.93,1.11-1.54,1.91-3.05,2.36-4.55.48-1.51.71-3.02.71-4.53,0-6.23-2.16-11.33-6.46-15.31s-9.53-5.98-15.68-5.98c-11.56,0-19.24,6.43-23.11,19.24l-3.56-1.39c1.94-6.38,5.15-11.56,9.62-15.57,4.47-4.01,10.16-6.03,17.05-6.03,7.23,0,13.35,2.36,18.39,7.09,5.01,4.75,7.51,10.73,7.51,17.96,0,2.08-.46,4.24-1.34,6.46Z"/>
    <path d="M386.41,117.13h-37.31V41.88h36.26c5.72,0,10.47,1.74,14.29,5.21,3.79,3.47,5.69,7.83,5.69,13.06,0,4.07-1,7.8-3.02,11.19-1.99,3.36-4.75,5.95-8.25,7.74,3.79,1.79,6.8,4.38,9.02,7.8,2.22,3.39,3.33,7.26,3.33,11.56,0,5.24-1.91,9.65-5.75,13.26-3.84,3.61-8.6,5.44-14.26,5.44ZM384.27,45.41h-31.39v32.16h32.56c4.58,0,8.42-1.71,11.53-5.12,3.07-3.39,4.61-7.6,4.61-12.64,0-4.16-1.65-7.57-4.95-10.3-3.3-2.73-7.4-4.1-12.35-4.1ZM385.44,81.21h-32.56v32.36h32.47c4.92,0,9.05-1.42,12.35-4.3,3.3-2.85,4.95-6.38,4.95-10.53,0-5.01-1.65-9.19-4.9-12.52-3.27-3.33-7.37-5.01-12.32-5.01Z"/>
    <path d="M248.66,181.94c-8.97-1.99-15.51-4.72-19.67-8.11-4.18-3.42-6.26-7.68-6.26-12.86,0-5.72,2.22-10.47,6.69-14.23,4.44-3.76,10.05-5.66,16.88-5.66,5.95,0,11.36,1.71,16.22,5.07,4.87,3.36,8.4,7.88,10.53,13.55l-2.99,1.71c-2.08-5.07-5.24-9.08-9.42-12.04-4.18-2.93-8.94-4.41-14.23-4.41-5.89,0-10.7,1.51-14.43,4.47-3.73,2.99-5.58,6.77-5.58,11.36,0,4.21,1.76,7.71,5.32,10.42,3.56,2.73,9.22,4.95,17.05,6.66,16.91,3.87,25.36,10.84,25.36,20.86,0,5.75-2.33,10.56-7.03,14.43-4.7,3.87-10.53,5.81-17.48,5.81-6.32,0-12.01-1.82-17.11-5.44-5.09-3.61-8.74-8.48-10.96-14.57l3.22-1.62c2.16,5.52,5.41,9.88,9.73,13.01,4.33,3.16,9.28,4.75,14.8,4.75,6.01,0,11.04-1.57,15.08-4.7,4.07-3.1,6.09-7.03,6.09-11.75,0-4.1-1.76-7.49-5.27-10.16-3.53-2.7-9.05-4.87-16.56-6.52Z"/>
    <path d="M341.7,142.49v3.53h-26.33v71.72h-3.76v-71.72h-26.36v-3.53h56.44Z"/>
    <path d="M400.5,210.54c-5.83,5.58-13.09,8.4-21.77,8.4s-15.91-2.82-21.77-8.4c-5.83-5.61-8.77-12.67-8.77-21.18v-46.88h3.79v45.79c0,8.4,2.48,14.97,7.46,19.72,4.98,4.78,11.41,7.14,19.3,7.14s14.32-2.36,19.3-7.14c4.98-4.75,7.49-11.33,7.49-19.72v-45.79h3.76v46.88c0,8.51-2.9,15.57-8.77,21.18Z"/>
    <path d="M445.18,217.75h-26.24v-75.25h26.24c6.89,0,13.21,1.57,18.93,4.72,5.75,3.16,10.3,7.6,13.72,13.38,3.39,5.78,5.09,12.24,5.09,19.41s-1.71,13.75-5.09,19.52c-3.42,5.75-7.97,10.25-13.72,13.43-5.72,3.19-12.04,4.78-18.93,4.78ZM444.1,146.02h-21.37v68.17h21.37c6.4,0,12.24-1.39,17.53-4.24,5.32-2.82,9.53-6.89,12.69-12.15,3.16-5.27,4.72-11.19,4.72-17.79s-1.57-12.49-4.72-17.67c-3.16-5.21-7.37-9.22-12.69-12.07-5.29-2.82-11.13-4.24-17.53-4.24Z"/>
    <path d="M497.69,217.75h-3.79v-75.25h3.79v75.25Z"/>
    <path d="M508.74,179.78c0-5.64,1-10.96,3.02-15.91,1.99-4.92,4.7-9.11,8.11-12.52,3.39-3.39,7.43-6.09,12.1-8.05,4.67-1.96,9.56-2.96,14.71-2.96s10.08,1,14.74,2.96c4.67,1.96,8.68,4.67,12.1,8.05,3.42,3.42,6.12,7.6,8.11,12.52,2.02,4.95,3.02,10.27,3.02,15.91s-1,11.1-3.02,16.08c-1.99,4.98-4.7,9.22-8.11,12.69-3.42,3.47-7.43,6.2-12.1,8.17-4.67,1.96-9.56,2.96-14.74,2.96s-10.05-1-14.71-2.96c-4.67-1.96-8.71-4.7-12.1-8.17-3.42-3.47-6.12-7.71-8.11-12.69-2.02-4.98-3.02-10.33-3.02-16.08ZM512.49,179.78c0,5.24.91,10.13,2.73,14.69,1.85,4.55,4.3,8.4,7.37,11.5,3.07,3.13,6.72,5.58,10.87,7.31,4.16,1.76,8.57,2.65,13.21,2.65s9.08-.88,13.23-2.65c4.16-1.74,7.77-4.18,10.87-7.31,3.07-3.1,5.52-6.94,7.34-11.5,1.85-4.55,2.76-9.45,2.76-14.69s-.91-9.96-2.76-14.46c-1.82-4.47-4.27-8.25-7.34-11.33-3.1-3.1-6.72-5.52-10.87-7.26-4.16-1.76-8.57-2.65-13.23-2.65s-9.05.88-13.21,2.65c-4.16,1.74-7.8,4.16-10.87,7.26-3.07,3.07-5.52,6.86-7.37,11.33-1.82,4.5-2.73,9.31-2.73,14.46Z"/>
  </g>
  <path class="st0" d="M29.26,64.98c-16.59,5.5-16.06,28.57-13.08,42.42,2.8,13,8.44,23.47,15.51,34.48.31.49,1.48,1,1.21,2.02-1.41.07-3.53.08-4.86.41-9.41,2.32-15.1,14.8-15.78,23.68-2.48,32.42,18.86,63.24,45.46,79.6,15.3,9.41,31.41,17.63,46.81,26.86l.41-.22v-37.24s-46.36-26.7-46.36-26.7c-3.23-1.69-5.05-4.49-7.07-7.3-1.83-2.54-3.32-4.33-4.53-7.41-2.39-6.08-3.36-18.14,5.51-18.91,6.81-.59,18.02,7.9,24.11,11.35,9.39,5.33,18.81,10.74,28.33,15.79v-36.43s-45.47-26.38-45.47-26.38c-3.76-2.91-5.37-5.64-7.56-9.64-.89-1.64-1.69-2.56-2.43-4.65-2.92-8.24-3.26-22.29,9.43-17.93,5.6,1.93,11.01,6.35,16.08,9.22,9.78,5.54,19.69,10.86,29.3,16.71.34.34.62-.11.66-.12v-37.24c-12.62-6.91-24.99-14.28-37.51-21.38-11.34-6.44-24.25-15.62-38.18-11Z"/>
  <path class="st1" d="M29.26,64.98c13.93-4.62,26.83,4.56,38.18,11,12.52,7.11,24.89,14.47,37.51,21.38l96.33-55.86c-13.35-7.54-26.39-15.72-39.8-23.14-11.94-6.6-26.26-15-39.8-7.29L29.26,64.98Z"/>
  <path class="st1" d="M104.94,134.6s-.32.45-.66.12c-9.61-5.85-19.52-11.17-29.3-16.71l-23.07,13.36c2.18,4.01,3.8,6.73,7.56,9.64l45.47,26.38,96.33-55.45c-8.79-5.9-18.37-10.81-27.52-16.19-1.28-.15-6.44,3.12-7.96,3.98-19.78,11.09-39.08,23.1-58.8,34.29-.64.44-1.3.5-2.04.59Z"/>
  <path class="st1" d="M104.94,203.81c-9.52-5.04-18.94-10.45-28.33-15.79l-25.09,14.98c2.02,2.8,3.85,5.6,7.07,7.3l46.36,26.7c28.8-17.12,57.97-33.61,86.89-50.52,2.54-1.49,5.13-2.98,7.64-4.52.53-.33,1.18-.35.99-1.21l-27.52-15.79c-.75.44-2.45.93-3.51,1.55-21.45,12.49-42.87,25.22-64.49,37.31Z"/>
  <path class="st2" d="M200.46,180.74c.19.86-.46.88-.99,1.21-2.51,1.54-5.1,3.04-7.64,4.52-28.92,16.92-58.09,33.41-86.89,50.52v37.24c31.98-18.05,63.62-36.97,95.53-55.24.42-.31.37-.75.42-1.2.49-4.02-.14-9.54-.04-13.8.02-.96.42-1.84.44-2.8.13-6.59-.07-13.21-.09-19.79l-.74-.66Z"/>
  <path class="st2" d="M104.94,97.36v37.24c.74-.09,1.4-.14,2.04-.59,19.73-11.19,39.02-23.2,58.8-34.29,1.52-.85,6.69-4.13,7.96-3.98-.1-.97,1.58-1.5,2.31-1.94,8.28-4.97,16.82-9.52,25.01-14.65.45-6.67.1-13.37.18-20.05.07-5.36,1.07-11.23.45-16.62-.04-.39-.02-.76-.43-.97l-96.33,55.86Z"/>
  <path class="st2" d="M104.94,167.39v36.43c21.62-12.09,43.04-24.81,64.49-37.31,1.06-.62,2.76-1.11,3.51-1.55.13-.08.47-.81,1.07-1.15,9.01-5.26,18.08-10.46,27.2-15.51l.07-36.36-96.33,55.45Z"/>
  <path class="st2" d="M51.52,203l25.09-14.98c-6.08-3.46-17.3-11.95-24.11-11.35-8.87.77-7.9,12.83-5.51,18.91,1.21,3.08,2.7,4.88,4.53,7.41Z"/>
  <path class="st2" d="M51.92,131.36l23.07-13.36c-5.07-2.87-10.48-7.29-16.08-9.22-12.69-4.37-12.35,9.69-9.43,17.93.74,2.09,1.54,3.01,2.43,4.65Z"/>
  <g>
    <path d="M258.87,117.13h-37.31V41.88h36.26c5.72,0,10.47,1.74,14.29,5.21,3.79,3.47,5.69,7.83,5.69,13.06,0,4.07-1,7.8-3.02,11.19-1.99,3.36-4.75,5.95-8.25,7.74,3.79,1.79,6.8,4.38,9.02,7.8,2.22,3.39,3.33,7.26,3.33,11.56,0,5.24-1.91,9.65-5.75,13.26-3.84,3.61-8.6,5.44-14.26,5.44ZM256.74,45.41h-31.39v32.16h32.56c4.58,0,8.42-1.71,11.53-5.12,3.07-3.39,4.61-7.6,4.61-12.64,0-4.16-1.65-7.57-4.95-10.3-3.3-2.73-7.4-4.1-12.35-4.1ZM257.91,81.21h-32.56v32.36h32.47c4.92,0,9.05-1.42,12.35-4.3,3.3-2.85,4.95-6.38,4.95-10.53,0-5.01-1.65-9.19-4.9-12.52-3.27-3.33-7.37-5.01-12.32-5.01Z"/>
    <path d="M336.8,72.19c-.91,2.22-1.91,4.13-3.02,5.75-1.11,1.62-2.68,3.42-4.67,5.44-2.02,1.99-3.61,3.5-4.78,4.5-1.2,1.02-2.85,2.39-5.01,4.1-.51.37-.85.65-1.08.85l-27.18,20.86h47.08v3.44h-51.6v-4.95l30.11-22.8c1.94-1.57,3.24-2.65,3.96-3.27.74-.6,1.99-1.71,3.84-3.33,1.82-1.62,3.13-2.96,3.96-4.04.83-1.05,1.79-2.36,2.9-3.93,1.11-1.54,1.91-3.05,2.36-4.55.48-1.51.71-3.02.71-4.53,0-6.23-2.16-11.33-6.46-15.31s-9.53-5.98-15.68-5.98c-11.56,0-19.24,6.43-23.11,19.24l-3.56-1.39c1.94-6.38,5.15-11.56,9.62-15.57,4.47-4.01,10.16-6.03,17.05-6.03,7.23,0,13.35,2.36,18.39,7.09,5.01,4.75,7.51,10.73,7.51,17.96,0,2.08-.46,4.24-1.34,6.46Z"/>
    <path d="M386.41,117.13h-37.31V41.88h36.26c5.72,0,10.47,1.74,14.29,5.21,3.79,3.47,5.69,7.83,5.69,13.06,0,4.07-1,7.8-3.02,11.19-1.99,3.36-4.75,5.95-8.25,7.74,3.79,1.79,6.8,4.38,9.02,7.8,2.22,3.39,3.33,7.26,3.33,11.56,0,5.24-1.91,9.65-5.75,13.26-3.84,3.61-8.6,5.44-14.26,5.44ZM384.27,45.41h-31.39v32.16h32.56c4.58,0,8.42-1.71,11.53-5.12,3.07-3.39,4.61-7.6,4.61-12.64,0-4.16-1.65-7.57-4.95-10.3-3.3-2.73-7.4-4.1-12.35-4.1ZM385.44,81.21h-32.56v32.36h32.47c4.92,0,9.05-1.42,12.35-4.3,3.3-2.85,4.95-6.38,4.95-10.53,0-5.01-1.65-9.19-4.9-12.52-3.27-3.33-7.37-5.01-12.32-5.01Z"/>
    <path d="M248.66,181.94c-8.97-1.99-15.51-4.72-19.67-8.11-4.18-3.42-6.26-7.68-6.26-12.86,0-5.72,2.22-10.47,6.69-14.23,4.44-3.76,10.05-5.66,16.88-5.66,5.95,0,11.36,1.71,16.22,5.07,4.87,3.36,8.4,7.88,10.53,13.55l-2.99,1.71c-2.08-5.07-5.24-9.08-9.42-12.04-4.18-2.93-8.94-4.41-14.23-4.41-5.89,0-10.7,1.51-14.43,4.47-3.73,2.99-5.58,6.77-5.58,11.36,0,4.21,1.76,7.71,5.32,10.42,3.56,2.73,9.22,4.95,17.05,6.66,16.91,3.87,25.36,10.84,25.36,20.86,0,5.75-2.33,10.56-7.03,14.43-4.7,3.87-10.53,5.81-17.48,5.81-6.32,0-12.01-1.82-17.11-5.44-5.09-3.61-8.74-8.48-10.96-14.57l3.22-1.62c2.16,5.52,5.41,9.88,9.73,13.01,4.33,3.16,9.28,4.75,14.8,4.75,6.01,0,11.04-1.57,15.08-4.7,4.07-3.1,6.09-7.03,6.09-11.75,0-4.1-1.76-7.49-5.27-10.16-3.53-2.7-9.05-4.87-16.56-6.52Z"/>
    <path d="M341.7,142.49v3.53h-26.33v71.72h-3.76v-71.72h-26.36v-3.53h56.44Z"/>
    <path d="M400.5,210.54c-5.83,5.58-13.09,8.4-21.77,8.4s-15.91-2.82-21.77-8.4c-5.83-5.61-8.77-12.67-8.77-21.18v-46.88h3.79v45.79c0,8.4,2.48,14.97,7.46,19.72,4.98,4.78,11.41,7.14,19.3,7.14s14.32-2.36,19.3-7.14c4.98-4.75,7.49-11.33,7.49-19.72v-45.79h3.76v46.88c0,8.51-2.9,15.57-8.77,21.18Z"/>
    <path d="M445.18,217.75h-26.24v-75.25h26.24c6.89,0,13.21,1.57,18.93,4.72,5.75,3.16,10.3,7.6,13.72,13.38,3.39,5.78,5.09,12.24,5.09,19.41s-1.71,13.75-5.09,19.52c-3.42,5.75-7.97,10.25-13.72,13.43-5.72,3.19-12.04,4.78-18.93,4.78ZM444.1,146.02h-21.37v68.17h21.37c6.4,0,12.24-1.39,17.53-4.24,5.32-2.82,9.53-6.89,12.69-12.15,3.16-5.27,4.72-11.19,4.72-17.79s-1.57-12.49-4.72-17.67c-3.16-5.21-7.37-9.22-12.69-12.07-5.29-2.82-11.13-4.24-17.53-4.24Z"/>
    <path d="M497.69,217.75h-3.79v-75.25h3.79v75.25Z"/>
    <path d="M508.74,179.78c0-5.64,1-10.96,3.02-15.91,1.99-4.92,4.7-9.11,8.11-12.52,3.39-3.39,7.43-6.09,12.1-8.05,4.67-1.96,9.56-2.96,14.71-2.96s10.08,1,14.74,2.96c4.67,1.96,8.68,4.67,12.1,8.05,3.42,3.42,6.12,7.6,8.11,12.52,2.02,4.95,3.02,10.27,3.02,15.91s-1,11.1-3.02,16.08c-1.99,4.98-4.7,9.22-8.11,12.69-3.42,3.47-7.43,6.2-12.1,8.17-4.67,1.96-9.56,2.96-14.74,2.96s-10.05-1-14.71-2.96c-4.67-1.96-8.71-4.7-12.1-8.17-3.42-3.47-6.12-7.71-8.11-12.69-2.02-4.98-3.02-10.33-3.02-16.08ZM512.49,179.78c0,5.24.91,10.13,2.73,14.69,1.85,4.55,4.3,8.4,7.37,11.5,3.07,3.13,6.72,5.58,10.87,7.31,4.16,1.76,8.57,2.65,13.21,2.65s9.08-.88,13.23-2.65c4.16-1.74,7.77-4.18,10.87-7.31,3.07-3.1,5.52-6.94,7.34-11.5,1.85-4.55,2.76-9.45,2.76-14.69s-.91-9.96-2.76-14.46c-1.82-4.47-4.27-8.25-7.34-11.33-3.1-3.1-6.72-5.52-10.87-7.26-4.16-1.76-8.57-2.65-13.23-2.65s-9.05.88-13.21,2.65c-4.16,1.74-7.8,4.16-10.87,7.26-3.07,3.07-5.52,6.86-7.37,11.33-1.82,4.5-2.73,9.31-2.73,14.46Z"/>
  </g>
</svg>