<?xml version="1.0" encoding="UTF-8"?>
<svg id="_Слой_1" data-name="Слой_1" xmlns="http://www.w3.org/2000/svg" version="1.1" viewBox="0 0 512 512">
  <!-- Generator: Adobe Illustrator 29.1.0, SVG Export Plug-In . SVG Version: 2.1.0 Build 142)  -->
  <defs>
    <style>
      .st0 {
        fill: #3e8dff;
      }

      .st1 {
        fill: #000c63;
      }

      .st2 {
        fill: #001fff;
      }
    </style>
  </defs>
  <path class="st0" d="M111.75,114.5c-30.78,10.22-29.81,53.02-24.27,78.73,5.19,24.12,15.67,43.56,28.78,63.98.58.9,2.74,1.85,2.25,3.75-2.62.14-6.55.15-9.01.76-17.47,4.31-28.02,27.47-29.28,43.95-4.61,60.17,35,117.36,84.36,147.72,28.39,17.46,58.29,32.72,86.87,49.85l.77-.41v-69.1s-86.03-49.55-86.03-49.55c-5.99-3.15-9.37-8.34-13.12-13.54-3.39-4.71-6.16-8.04-8.4-13.76-4.43-11.29-6.23-33.66,10.23-35.1,12.63-1.1,33.45,14.65,44.74,21.07,17.42,9.9,34.92,19.94,52.58,29.29v-67.6s-84.37-48.95-84.37-48.95c-6.97-5.41-9.97-10.46-14.02-17.9-1.66-3.05-3.15-4.76-4.52-8.63-5.42-15.28-6.05-41.37,17.5-33.27,10.39,3.57,20.43,11.78,29.84,17.11,18.15,10.29,36.54,20.16,54.37,31.01.63.62,1.16-.21,1.22-.22v-69.1c-23.43-12.82-46.38-26.49-69.61-39.68-21.05-11.96-45-28.99-70.85-20.41Z"/>
  <path class="st1" d="M111.75,114.5c25.85-8.58,49.8,8.45,70.85,20.41,23.23,13.19,46.18,26.86,69.61,39.68l178.77-103.66c-24.77-13.99-48.97-29.18-73.86-42.94-22.16-12.25-48.72-27.83-73.87-13.52L111.75,114.5Z"/>
  <path class="st1" d="M252.21,243.7c-.06,0-.59.84-1.22.22-17.83-10.85-36.22-20.73-54.37-31.01l-42.81,24.79c4.05,7.43,7.05,12.49,14.02,17.9l84.37,48.95,178.77-102.91c-16.32-10.94-34.08-20.06-51.08-30.05-2.37-.28-11.95,5.8-14.78,7.38-36.71,20.58-72.52,42.88-109.13,63.64-1.18.82-2.42.92-3.79,1.09Z"/>
  <path class="st1" d="M252.21,372.14c-17.66-9.35-35.16-19.39-52.58-29.29l-46.57,27.79c3.75,5.2,7.14,10.4,13.12,13.54l86.03,49.55c53.44-31.76,107.58-62.37,161.25-93.76,4.72-2.76,9.53-5.53,14.18-8.39.99-.61,2.19-.66,1.84-2.25l-51.08-29.29c-1.39.81-4.55,1.73-6.51,2.88-39.8,23.19-79.56,46.8-119.68,69.23Z"/>
  <path class="st2" d="M429.48,329.33c.35,1.59-.85,1.64-1.84,2.25-4.65,2.86-9.46,5.63-14.18,8.39-53.67,31.39-107.81,62-161.25,93.76v69.1c59.34-33.49,118.06-68.6,177.28-102.52.78-.57.68-1.39.78-2.22.9-7.47-.27-17.7-.07-25.61.04-1.78.78-3.42.81-5.2.24-12.23-.12-24.52-.17-36.73l-1.36-1.23Z"/>
  <path class="st2" d="M252.21,174.59v69.1c1.37-.16,2.6-.27,3.79-1.09,36.61-20.76,72.42-43.06,109.13-63.64,2.83-1.59,12.41-7.66,14.78-7.38-.19-1.81,2.93-2.78,4.29-3.6,15.37-9.22,31.22-17.66,46.41-27.19.83-12.38.18-24.82.34-37.22.13-9.95,1.98-20.84.83-30.85-.08-.72-.03-1.41-.8-1.8l-178.77,103.66Z"/>
  <path class="st2" d="M252.21,304.54v67.6c40.11-22.44,79.88-46.05,119.68-69.23,1.96-1.14,5.12-2.06,6.51-2.88.24-.14.88-1.49,1.98-2.13,16.72-9.75,33.55-19.41,50.48-28.78l.12-67.48-178.77,102.91Z"/>
  <path class="st2" d="M153.06,370.64l46.57-27.79c-11.29-6.41-32.1-22.17-44.74-21.07-16.46,1.44-14.66,23.81-10.23,35.1,2.24,5.72,5,9.05,8.4,13.76Z"/>
  <path class="st2" d="M153.81,237.69l42.81-24.79c-9.4-5.33-19.45-13.54-29.84-17.11-23.55-8.1-22.92,17.99-17.5,33.27,1.37,3.87,2.86,5.58,4.52,8.63Z"/>
</svg>