<svg width="21" height="16" viewBox="0 0 21 16" fill="none" xmlns="http://www.w3.org/2000/svg">
<path d="M19.9429 5.29395C20.0991 5.17676 20.3335 5.29395 20.3335 5.48926V13.458C20.3335 14.5127 19.4741 15.333 18.4585 15.333H2.2085C1.15381 15.333 0.333496 14.5127 0.333496 13.458V5.48926C0.333496 5.29395 0.528809 5.17676 0.685059 5.29395C1.5835 5.99707 2.71631 6.85645 6.70068 9.74707C7.521 10.333 8.92725 11.6221 10.3335 11.6221C11.7007 11.6221 13.146 10.333 13.9272 9.74707C17.9116 6.85645 19.0444 5.99707 19.9429 5.29395ZM10.3335 10.333C9.396 10.3721 8.10693 9.2002 7.44287 8.73145C2.24756 4.98145 1.85693 4.62988 0.685059 3.69238C0.450684 3.53613 0.333496 3.2627 0.333496 2.9502V2.20801C0.333496 1.19238 1.15381 0.333008 2.2085 0.333008H18.4585C19.4741 0.333008 20.3335 1.19238 20.3335 2.20801V2.9502C20.3335 3.2627 20.1772 3.53613 19.9429 3.69238C18.771 4.62988 18.3804 4.98145 13.1851 8.73145C12.521 9.2002 11.2319 10.3721 10.3335 10.333Z" fill="#757575"/>
</svg>
