<svg width="16" height="21" viewBox="0 0 16 21" fill="none" xmlns="http://www.w3.org/2000/svg">
<path d="M7.05225 19.7764C1.34912 11.5732 0.333496 10.7139 0.333496 7.66699C0.333496 3.52637 3.65381 0.166992 7.8335 0.166992C11.9741 0.166992 15.3335 3.52637 15.3335 7.66699C15.3335 10.7139 14.2788 11.5732 8.57568 19.7764C8.22412 20.3232 7.40381 20.3232 7.05225 19.7764ZM7.8335 10.792C9.55225 10.792 10.9585 9.4248 10.9585 7.66699C10.9585 5.94824 9.55225 4.54199 7.8335 4.54199C6.07568 4.54199 4.7085 5.94824 4.7085 7.66699C4.7085 9.4248 6.07568 10.792 7.8335 10.792Z" fill="#757575"/>
</svg>
